<svg width="203" height="44" viewBox="0 0 203 44" fill="none" xmlns="http://www.w3.org/2000/svg">
  <g filter="url(#filter0_b_399_4127)">
    <path
      d="M15.602 0.869999H24.534L40.136 42.398H31.494L28.072 32.48H12.122L8.642 42.398H0L15.602 0.869999ZM25.52 25.288L21.808 14.848L20.3 9.86H19.836L18.328 14.848L14.616 25.288H25.52Z"
      fill="white" fill-opacity="0.7" />
    <path
      d="M42.5281 13.63H49.6621V17.342H50.1261C51.0155 15.9113 52.2335 14.79 53.7801 13.978C55.3268 13.1273 57.0668 12.702 59.0001 12.702C62.5188 12.702 65.1868 13.7847 67.0041 15.95C68.8215 18.1153 69.7301 21.0733 69.7301 24.824V42.398H62.1321V25.752C62.1321 23.78 61.6488 22.2913 60.6821 21.286C59.7541 20.242 58.4395 19.72 56.7381 19.72C54.6888 19.72 53.0648 20.5127 51.8661 22.098C50.7061 23.6833 50.1261 25.694 50.1261 28.13V42.398H42.5281V13.63Z"
      fill="white" fill-opacity="0.7" />
    <path
      d="M86.9204 43.326C84.4071 43.326 82.0871 42.6687 79.9604 41.354C77.8724 40.0393 76.1904 38.222 74.9144 35.902C73.6771 33.582 73.0584 30.9527 73.0584 28.014C73.0584 25.0753 73.6771 22.446 74.9144 20.126C76.1904 17.806 77.8724 15.9887 79.9604 14.674C82.0871 13.3593 84.4071 12.702 86.9204 12.702C88.9311 12.702 90.6904 13.108 92.1984 13.92C93.7451 14.732 94.9051 15.776 95.6784 17.052H96.1424L95.6784 12.992V0.869999H103.218V42.398H96.1424V38.918H95.6784C94.9051 40.194 93.7451 41.2573 92.1984 42.108C90.6904 42.92 88.9311 43.326 86.9204 43.326ZM88.3704 36.308C89.7238 36.308 90.9998 35.9793 92.1984 35.322C93.3971 34.626 94.3444 33.6593 95.0404 32.422C95.7751 31.146 96.1424 29.6767 96.1424 28.014C96.1424 26.3513 95.7751 24.9013 95.0404 23.664C94.3444 22.388 93.3971 21.4213 92.1984 20.764C90.9998 20.068 89.7238 19.72 88.3704 19.72C87.0171 19.72 85.7411 20.068 84.5424 20.764C83.3824 21.4213 82.4351 22.388 81.7004 23.664C81.0044 24.9013 80.6564 26.3513 80.6564 28.014C80.6564 29.638 81.0044 31.088 81.7004 32.364C82.4351 33.6013 83.3824 34.568 84.5424 35.264C85.7411 35.96 87.0171 36.308 88.3704 36.308Z"
      fill="white" fill-opacity="0.7" />
    <path
      d="M108.423 13.63H115.557V17.574H116.021C116.717 16.182 117.819 15.0413 119.327 14.152C120.873 13.224 122.517 12.76 124.257 12.76C125.571 12.76 126.77 12.9727 127.853 13.398V20.996C126.19 20.3 124.585 19.952 123.039 19.952C120.912 19.952 119.211 20.7447 117.935 22.33C116.659 23.8767 116.021 25.8487 116.021 28.246V42.398H108.423V13.63Z"
      fill="white" fill-opacity="0.7" />
    <path
      d="M142.597 43.326C139.658 43.326 137.029 42.6687 134.709 41.354C132.389 40.0393 130.572 38.222 129.257 35.902C127.942 33.5433 127.285 30.914 127.285 28.014C127.285 25.0753 127.942 22.446 129.257 20.126C130.572 17.806 132.389 15.9887 134.709 14.674C137.029 13.3593 139.658 12.702 142.597 12.702C145.497 12.702 148.107 13.3593 150.427 14.674C152.747 15.9887 154.564 17.8253 155.879 20.184C157.194 22.504 157.851 25.114 157.851 28.014C157.851 30.914 157.194 33.5433 155.879 35.902C154.564 38.222 152.747 40.0393 150.427 41.354C148.107 42.6687 145.497 43.326 142.597 43.326ZM142.597 36.308C143.95 36.308 145.207 35.9793 146.367 35.322C147.566 34.626 148.513 33.6593 149.209 32.422C149.905 31.146 150.253 29.6767 150.253 28.014C150.253 26.3513 149.905 24.9013 149.209 23.664C148.513 22.388 147.566 21.4213 146.367 20.764C145.207 20.068 143.95 19.72 142.597 19.72C141.205 19.72 139.91 20.068 138.711 20.764C137.551 21.4213 136.623 22.388 135.927 23.664C135.231 24.9013 134.883 26.3513 134.883 28.014C134.883 29.6767 135.231 31.146 135.927 32.422C136.623 33.6593 137.551 34.626 138.711 35.322C139.91 35.9793 141.205 36.308 142.597 36.308Z"
      fill="white" fill-opacity="0.7" />
    <path
      d="M165.071 9.802C163.717 9.802 162.557 9.31867 161.591 8.352C160.663 7.38533 160.199 6.22533 160.199 4.872C160.199 3.51866 160.682 2.378 161.649 1.45C162.615 0.483333 163.756 0 165.071 0C166.424 0 167.584 0.483333 168.551 1.45C169.517 2.378 170.001 3.51866 170.001 4.872C170.001 6.22533 169.517 7.38533 168.551 8.352C167.584 9.31867 166.424 9.802 165.071 9.802ZM161.301 13.63H168.899V42.398H161.301V13.63Z"
      fill="white" fill-opacity="0.7" />
    <path
      d="M186.538 43.326C184.024 43.326 181.704 42.6687 179.578 41.354C177.49 40.0393 175.808 38.222 174.532 35.902C173.294 33.582 172.676 30.9527 172.676 28.014C172.676 25.0753 173.294 22.446 174.532 20.126C175.808 17.806 177.49 15.9887 179.578 14.674C181.704 13.3593 184.024 12.702 186.538 12.702C188.548 12.702 190.308 13.108 191.816 13.92C193.362 14.732 194.522 15.776 195.296 17.052H195.76L195.296 12.992V0.869999H202.836V42.398H195.76V38.918H195.296C194.522 40.194 193.362 41.2573 191.816 42.108C190.308 42.92 188.548 43.326 186.538 43.326ZM187.988 36.308C189.341 36.308 190.617 35.9793 191.816 35.322C193.014 34.626 193.962 33.6593 194.658 32.422C195.392 31.146 195.76 29.6767 195.76 28.014C195.76 26.3513 195.392 24.9013 194.658 23.664C193.962 22.388 193.014 21.4213 191.816 20.764C190.617 20.068 189.341 19.72 187.988 19.72C186.634 19.72 185.358 20.068 184.16 20.764C183 21.4213 182.052 22.388 181.318 23.664C180.622 24.9013 180.274 26.3513 180.274 28.014C180.274 29.638 180.622 31.088 181.318 32.364C182.052 33.6013 183 34.568 184.16 35.264C185.358 35.96 186.634 36.308 187.988 36.308Z"
      fill="white" fill-opacity="0.7" />
  </g>
  <defs>
    <filter id="filter0_b_399_4127" x="-20" y="-20" width="242.835" height="83.3262"
      filterUnits="userSpaceOnUse" color-interpolation-filters="sRGB">
      <feFlood flood-opacity="0" result="BackgroundImageFix" />
      <feGaussianBlur in="BackgroundImageFix" stdDeviation="10" />
      <feComposite in2="SourceAlpha" operator="in" result="effect1_backgroundBlur_399_4127" />
      <feBlend mode="normal" in="SourceGraphic" in2="effect1_backgroundBlur_399_4127" result="shape" />
    </filter>
  </defs>
</svg>
