<svg width="83" height="249" viewBox="0 0 83 249" fill="none" xmlns="http://www.w3.org/2000/svg">
<path d="M10.9071 25.3067C13.5749 25.3067 15.798 24.15 17.5765 21.8366C19.3665 19.5118 20.2614 16.4705 20.2614 12.7126C20.2614 8.70641 19.3836 5.59174 17.6278 3.36859C15.8835 1.14543 13.6433 0.0338547 10.9071 0.0338547H10.8729C8.15957 0.0338547 5.92503 1.17364 4.16933 3.45322C2.41362 5.7328 1.53577 8.8249 1.53577 12.7295C1.53577 16.4874 2.40792 19.5231 4.15223 21.8366C5.90793 24.15 8.14817 25.3067 10.8729 25.3067H10.9071ZM10.89 21.9212C9.19134 21.9212 7.82325 21.0805 6.78579 19.399C5.75972 17.7062 5.24669 15.4944 5.24669 12.7634C5.24669 9.87441 5.77683 7.60612 6.83709 5.9585C7.89736 4.2996 9.24834 3.47015 10.89 3.47015H10.9071C12.5716 3.47015 13.9283 4.26575 14.9772 5.85694C16.0375 7.44813 16.5676 9.75028 16.5676 12.7634C16.5676 15.6072 16.0432 17.8473 14.9943 19.4836C13.9454 21.1087 12.583 21.9212 10.9071 21.9212H10.89Z" fill="#FFEFD3"/>
<path d="M23.7249 12.0694C23.6451 12.7577 23.5995 13.1019 23.5881 13.1019C23.5881 13.1019 24.1182 13.3446 25.1785 13.8298C26.2388 14.3038 26.7689 14.5408 26.7689 14.5408C26.7689 14.5408 26.9912 14.2869 27.4358 13.779L27.4529 13.7621C27.7608 13.4348 28.2168 13.1414 28.821 12.8819C29.4253 12.6223 30.1207 12.4925 30.9073 12.4925H30.9415C32.321 12.4925 33.4611 12.9383 34.3618 13.8298C35.2738 14.7101 35.7298 15.8498 35.7298 17.2492V17.2661C35.7298 18.7219 35.3137 19.8899 34.4815 20.7701C33.6492 21.6504 32.5091 22.0905 31.0613 22.0905H31.0271C29.7616 22.0905 28.707 21.735 27.8634 21.024C27.0311 20.3131 26.4839 19.5739 26.2217 18.8065C25.9708 18.0279 25.8454 17.6385 25.8454 17.6385C25.8454 17.6385 25.3153 17.8699 24.255 18.3326C23.286 18.784 22.8015 19.0097 22.8015 19.0097C22.8015 19.0097 22.9269 19.4046 23.1777 20.1946C23.7021 21.6165 24.6541 22.8296 26.0335 23.834C27.413 24.8384 29.1231 25.3406 31.1639 25.3406H31.2152C33.5979 25.3406 35.5417 24.5788 37.0466 23.0553C38.5629 21.5319 39.3211 19.6021 39.3211 17.2661V17.2492C39.3211 15.0148 38.5971 13.164 37.1492 11.6969C35.7013 10.2299 33.9228 9.49636 31.8137 9.49636H31.7795C30.7534 9.49636 29.83 9.65435 29.0091 9.97034C28.1997 10.2863 27.5384 10.7151 27.0254 11.2568L26.9057 11.206L27.8463 3.91027L36.1232 3.92719C37.229 3.92719 37.782 3.92719 37.782 3.92719C37.782 3.92719 37.782 3.35166 37.782 2.20058C37.782 1.10593 37.782 0.55861 37.782 0.55861C37.782 0.55861 37.229 0.55861 36.1232 0.55861H26.5808C25.6687 0.55861 25.2127 0.55861 25.2127 0.55861C25.2127 0.55861 25.1443 1.05515 25.0075 2.04823L23.7249 12.0694Z" fill="#FFEFD3"/>
<path d="M57.0936 13.7113C58.4845 13.7113 59.6017 14.0837 60.4454 14.8285C61.289 15.5621 61.7109 16.5495 61.7109 17.7909C61.7109 19.0548 61.2947 20.093 60.4625 20.9055C59.6302 21.7068 58.5529 22.1074 57.2304 22.1074C56.0447 22.1074 55.0928 21.7801 54.3745 21.1256C53.6563 20.4598 53.166 19.7488 52.9038 18.9927C52.653 18.3269 52.5276 17.994 52.5276 17.994C52.5276 17.994 51.9918 18.1915 50.9201 18.5865C49.8826 18.9814 49.3639 19.1789 49.3639 19.1789C49.3639 19.1789 49.4722 19.5118 49.6888 20.1777C50.1335 21.5883 51.0398 22.8014 52.4079 23.8171C53.7874 24.8215 55.4519 25.3236 57.4014 25.3236C59.6929 25.3236 61.5855 24.6183 63.079 23.2077C64.5838 21.7971 65.3363 20.0084 65.3363 17.8417V17.8247C65.3363 16.3802 64.9316 15.1163 64.1221 14.033C63.3127 12.9496 62.241 12.2273 60.9071 11.8662V11.7647C62.013 11.381 62.8737 10.7095 63.4894 9.75028C64.1164 8.77976 64.4299 7.64562 64.4299 6.34784C64.4299 4.37295 63.7915 2.8269 62.5146 1.70968C61.2377 0.581179 59.5219 0.0169264 57.3672 0.0169264H57.3501C55.6058 0.0169264 54.1408 0.428831 52.9551 1.25264C51.7809 2.06516 50.9429 3.00746 50.4413 4.07954C50.0765 4.89207 49.8883 5.29833 49.8769 5.29833C49.8769 5.29833 50.3843 5.5466 51.3989 6.04314C52.3566 6.49454 52.8354 6.72024 52.8354 6.72024C52.8354 6.72024 53.0406 6.33091 53.4511 5.55224C53.7703 4.90899 54.2149 4.36731 54.7849 3.92719C55.3664 3.47579 56.1416 3.25009 57.1107 3.25009H57.1278C58.3135 3.25009 59.254 3.57736 59.9495 4.23189C60.6449 4.88642 60.9926 5.78358 60.9926 6.92338V6.9403C60.9926 8.05752 60.605 8.96032 59.8298 9.64871C59.0545 10.3371 58.0683 10.6813 56.8713 10.6813H56.153C55.2866 10.6813 54.8534 10.6813 54.8534 10.6813C54.8534 10.6813 54.8534 11.1722 54.8534 12.154C54.8534 13.1922 54.8534 13.7113 54.8534 13.7113C54.8534 13.7113 55.2866 13.7113 56.153 13.7113H57.0936Z" fill="#FFEFD3"/>
<path d="M81.3081 24.7989C82.3912 24.7989 82.9327 24.7989 82.9327 24.7989C82.9327 24.7989 82.9327 24.2346 82.9327 23.1061V23.0892C82.9327 22.0171 82.9327 21.4811 82.9327 21.4811C82.9327 21.4811 82.3912 21.4811 81.3081 21.4811L71.9197 21.4642C73.1509 20.1551 74.2967 18.9419 75.357 17.8247C76.4286 16.6962 77.3863 15.6862 78.2299 14.7947C79.6892 13.2712 80.7552 11.8832 81.4278 10.6305C82.1005 9.36659 82.4368 8.08009 82.4368 6.77103V6.73717C82.4368 4.83 81.7414 3.23316 80.3505 1.94667C78.9596 0.64889 77.164 0 74.9636 0C73.1509 0 71.6232 0.417547 70.3806 1.25264C69.1493 2.08773 68.2543 3.14853 67.6957 4.43502C67.3423 5.24754 67.1656 5.65381 67.1656 5.65381C67.1656 5.65381 67.6729 5.89643 68.6876 6.38169C69.6794 6.82181 70.1754 7.04187 70.1754 7.04187C70.1754 7.04187 70.3749 6.61304 70.7739 5.75537C71.1387 5.06698 71.6346 4.50837 72.2617 4.07954C72.8887 3.63943 73.7096 3.41937 74.7242 3.41937H74.7413C75.9156 3.41937 76.8676 3.75792 77.5972 4.43502C78.3269 5.11212 78.6917 5.98107 78.6917 7.04187V7.07572C78.6917 8.0011 78.4295 8.90954 77.905 9.80106C77.3806 10.6926 76.44 11.8775 75.0834 13.3558C73.7267 14.8342 72.4669 16.1997 71.304 17.4523C70.1526 18.705 69.2006 19.7206 68.4481 20.4993C67.6957 21.3457 67.3195 21.7688 67.3195 21.7688C67.3195 21.7688 67.3195 22.1187 67.3195 22.8184C67.3195 24.1387 67.3195 24.7989 67.3195 24.7989C67.3195 24.7989 67.975 24.7989 69.2861 24.7989H81.3081Z" fill="#FFEFD3"/>
<path fill-rule="evenodd" clip-rule="evenodd" d="M55.8982 72.9512V79.8893H59.1637V72.9512H55.8982ZM64.5925 82.1473L66.8376 84.4463L71.7358 79.5609L69.4499 77.2208L64.5925 82.1473ZM69.1234 89.9065V93.1908H76.0217V89.9065H69.1234ZM64.6334 100.909L69.4908 105.835L71.8174 103.495L66.9192 98.5688L64.6334 100.909ZM43.3262 79.5609L48.2244 84.4463L50.4694 82.1883L45.612 77.3029L43.3262 79.5609ZM55.041 103.454H47.7346C46.2379 103.454 44.9793 102.934 43.9589 101.894C42.9384 100.854 42.4282 99.5952 42.4282 98.1173C42.4282 96.6393 42.9452 95.3872 43.9793 94.3608C45.0133 93.3345 46.2651 92.8213 47.7346 92.8213C48.7142 92.8213 49.6122 93.0813 50.4286 93.6013C51.2449 94.1213 51.8436 94.8329 52.2246 95.7361L53.0818 97.6246H55.0819C55.871 97.6246 56.5377 97.9188 57.082 98.5073C57.6262 99.0957 57.8983 99.7868 57.8983 100.58C57.8983 101.374 57.6194 102.052 57.0616 102.613C56.5037 103.174 55.8302 103.454 55.041 103.454ZM41.673 104.214C43.3466 105.897 45.3671 106.739 47.7346 106.739H55.0819C56.7418 106.739 58.1364 106.13 59.2657 104.912C60.3951 103.694 61.0005 102.236 61.0822 100.539C62.9326 99.8278 64.4157 98.651 65.5314 97.0088C66.6471 95.3666 67.2049 93.5466 67.2049 91.5486C67.2049 88.8391 66.2661 86.54 64.3885 84.6516C62.5108 82.7631 60.225 81.8188 57.531 81.8188C55.2179 81.8188 53.1566 82.5373 51.347 83.9742C49.5374 85.4111 48.4149 87.2653 47.9795 89.537C45.5576 89.5096 43.4826 90.3307 41.7547 92.0002C40.0267 93.6697 39.1627 95.7088 39.1627 98.1173C39.1627 100.498 39.9995 102.531 41.673 104.214ZM51.2646 90.2923C51.4805 88.7991 52.1746 87.5689 53.3471 86.6016C54.558 85.6026 55.9527 85.1031 57.531 85.1031C59.2998 85.1031 60.81 85.7326 62.0618 86.9916C63.3136 88.2506 63.9394 89.7696 63.9394 91.5486C63.9394 92.835 63.5925 94.0187 62.8986 95.0998C62.2415 96.1234 61.3588 96.8833 60.2504 97.3794C60.0088 96.9682 59.7146 96.5778 59.3678 96.2082C58.2249 94.9903 56.8234 94.3813 55.1635 94.3813C54.5104 92.9581 53.5444 91.7949 52.2654 90.8918C51.9414 90.663 51.6078 90.4632 51.2646 90.2923ZM4.80899 88.5764C5.74165 89.543 6.9541 90.0263 8.44634 90.0263C9.92693 90.0263 11.1452 89.543 12.1012 88.5764C13.0571 87.5981 13.5351 86.3781 13.5351 84.9164V84.8457C13.5351 83.4194 13.0513 82.1935 12.0837 81.168C11.1161 80.1425 9.90361 79.6297 8.44634 79.6297H8.42885C6.97158 79.6297 5.77079 80.1189 4.82648 81.0973C3.88217 82.0756 3.41001 83.3192 3.41001 84.828V84.881C3.41001 86.3781 3.87634 87.6098 4.80899 88.5764ZM22.5585 83.6434C23.3979 84.2327 24.2023 84.7985 24.9718 85.3408L25.9161 86.0126L25.409 87.7277L24.8319 89.6019L23.0482 88.2935C22.8034 88.1049 22.4361 87.8397 21.9465 87.4979C21.4452 87.1442 20.7748 86.6669 19.9355 86.0657C19.1893 85.547 18.4724 85.0343 17.7845 84.5274C17.3051 84.18 16.875 83.8658 16.4941 83.5849C16.6083 83.974 16.6653 84.5592 16.6653 85.3408V85.3584C16.677 87.6334 15.9076 89.5784 14.357 91.1932C12.8065 92.8081 10.8538 93.6156 8.4988 93.6156C6.13219 93.6156 4.12699 92.7845 2.48319 91.1225C0.82773 89.4487 0 87.3918 0 84.9518V84.8987C0 82.3526 0.8219 80.2368 2.4657 78.5512C4.09784 76.8656 6.09139 76.0228 8.44634 76.0228H8.51629C10.1834 76.0228 11.7864 76.4943 13.3253 77.4373C14.8525 78.3685 16.3855 79.3645 17.9244 80.4254C20.1745 81.9695 21.7192 83.0422 22.5585 83.6434ZM23.7827 96.9976H2.18591H0.454669V98.8011V99.4553L1.52139 100.941L4.96638 105.785C5.53763 106.587 5.82908 106.988 5.84074 106.988C5.84074 106.976 6.27792 106.663 7.15228 106.05L8.4988 105.096L7.79931 104.105L5.40356 100.764H23.7827H25.5489V98.9249V96.9976H23.7827ZM25.5489 116.492V118.26V129.558V131.45H23.6253H2.39575H0.507131V129.523V127.507H2.39575H21.9815V118.26V116.492H23.7127H25.5489ZM26.1085 146.717C26.1085 143.723 25.205 141.325 23.3979 139.521C21.5793 137.718 19.1835 136.816 16.2107 136.816H2.34329H0.507131V138.761V140.617H2.34329H15.9309C18.0294 140.617 19.6557 141.148 20.8098 142.209C21.9523 143.258 22.5236 144.761 22.5236 146.717C22.5236 148.603 21.9348 150.089 20.7574 151.173C19.5682 152.258 17.9594 152.8 15.9309 152.8H2.37827H0.507131V154.745V156.69H2.37827H16.1757C19.1485 156.69 21.5501 155.782 23.3804 153.967C25.1991 152.14 26.1085 149.723 26.1085 146.717ZM23.8701 163.718C25.3507 165.145 26.091 167.025 26.091 169.359C26.091 170.985 25.7704 172.365 25.1292 173.496C24.4763 174.628 23.736 175.465 22.9083 176.007L21.7017 176.856L20.5125 175.353L19.5333 173.991L20.7923 173.001C21.282 172.647 21.6842 172.188 21.999 171.622C22.3137 171.056 22.4711 170.373 22.4711 169.571C22.4711 168.263 22.0339 167.249 21.1596 166.53C20.2852 165.799 19.0728 165.434 17.5222 165.434H2.36078H0.507131V163.542V161.561H2.36078H17.802C20.3668 161.561 22.3895 162.28 23.8701 163.718ZM25.5489 188.791V187.076H23.8176H22.0339V188.791V198.374H14.6193V189.728V188.119H12.993H11.3142V189.728V198.374H4.03955V188.667V187.182H2.30832H0.507131V188.667V200.231V202.14H2.44821L23.6078 202.158H25.5489V200.231V188.791ZM23.3979 210.211C25.205 212.015 26.1085 214.414 26.1085 217.408C26.1085 220.414 25.1991 222.83 23.3804 224.657C21.5501 226.472 19.1485 227.38 16.1757 227.38H2.37827H0.507131V225.435V223.49H2.37827H15.9309C17.9594 223.49 19.5682 222.948 20.7574 221.863C21.9348 220.779 22.5236 219.294 22.5236 217.408C22.5236 215.451 21.9523 213.948 20.8098 212.899C19.6557 211.838 18.0294 211.308 15.9309 211.308H2.34329H0.507131V209.451V207.506H2.34329H16.2107C19.1835 207.506 21.5793 208.408 23.3979 210.211ZM4.05704 237.607H23.6777H25.5489V239.57V239.587V241.515H23.6777H4.05704V247.031V248.799H2.3258H0.507131V247.031V232.161V230.393H2.3258H4.05704V232.161V237.607Z" fill="#FFEFD3"/>
</svg>
