<svg viewBox="0 0 281 606" xmlns="http://www.w3.org/2000/svg"><g fill="#171717" fill-rule="nonzero"><path d="M1.98866042,412.357941 C1.98866042,359.742193 1.98866042,307.123108 1.99199771,254.507359 C1.99199771,253.519521 2.05206897,252.681861 0.934076098,252.001053 C0.346712677,251.643963 0.0663801357,250.382466 0.0630428435,249.52812 C0.00964616892,236.569414 0.0263326297,223.610709 0.0263326297,210.648666 C0.0263326297,208.923286 -0.0570996743,207.194568 0.07305472,205.4792 C0.126451395,204.785044 0.470192487,203.833915 0.994147357,203.516873 C1.8685179,202.98958 2.00868417,202.39888 2.00534688,201.507823 C1.98198584,192.497134 1.98866042,183.486445 1.99533501,174.475756 C1.99533501,173.574687 1.93192645,172.917241 0.987472772,172.286492 C0.363399138,171.869331 0.0663801357,170.574462 0.0663801357,169.673393 C0.0163207532,151.762146 0.0263326297,133.854236 0.0263326297,115.942989 C0.0263326297,107.489628 0.0396817984,99.0329295 0.0129834611,90.5795685 C0.00964616892,89.2713499 0.189859946,88.2201029 1.47471743,87.4892359 C1.84849415,87.2756492 1.96863667,86.3712431 1.97197396,85.7838796 C2.01869605,70.7126682 1.98532313,55.6381195 2.0821046,40.5669081 C2.12215211,34.4463143 2.40915923,28.3157086 4.31141577,22.4220507 C7.98911173,11.0318725 16.0319858,4.54083925 27.5489811,2.08459222 C35.4283279,0.402596974 43.4478409,0.158974646 51.4506675,0.135613601 C92.4426272,0.0288202521 133.434587,0.0121337913 174.426546,0 C192.83505,0 211.246891,0 229.655394,0.145625478 C237.321154,0.209034029 245.000264,0.429295312 252.569242,1.96111241 C267.400169,4.95800077 276.277366,14.4359105 278.006083,29.5438321 C278.573423,34.5030483 278.766986,39.5290103 278.776998,44.5249366 C278.873779,83.8482502 278.883791,123.171564 278.920501,162.494877 C278.920501,163.519426 278.740287,164.530625 280.011796,165.161374 C280.469005,165.38831 280.756012,166.38616 280.759349,167.033595 C280.799397,181.884545 280.802734,196.735495 280.759349,211.586445 C280.756012,212.230542 280.455656,213.185008 279.98176,213.451991 C278.803696,214.122787 278.913827,215.077253 278.913827,216.121825 C278.913827,306.338844 278.907152,396.552526 278.903815,486.769545 C278.903815,509.963725 278.963886,533.157906 278.867105,556.348749 C278.837069,563.563975 279.000596,570.82926 277.305252,577.931017 C274.602045,589.264462 267.730561,596.896849 256.754207,600.784794 C250.249824,603.090863 243.458435,604.182158 236.62366,604.359034 C219.393221,604.802894 202.156107,605.059865 184.918993,605.113262 C150.548221,605.223393 116.174112,605.15331 81.8033398,605.129949 C79.6407744,605.129949 77.4815464,604.812906 75.3189811,604.802894 C71.7714395,604.789545 68.2272352,604.973096 64.6796937,604.953072 C59.0663683,604.919699 53.4497056,604.923036 47.846392,604.662728 C40.8447531,604.335673 33.8698124,603.601469 27.0784229,601.73926 C12.9349787,597.857989 4.52166517,588.259937 2.78293596,573.672633 C2.19223524,568.716754 2.02203334,563.687454 2.01535876,558.688191 C1.96863667,509.917003 1.98866042,461.135804 1.98866042,412.357941 Z M274.055728,303.231825 C274.055728,222.859818 274.055728,142.487811 274.04138,62.1158036 C274.04138,59.3391765 273.924575,56.5558749 273.694302,53.7892597 C272.980121,45.2057442 267.083126,38.2741884 258.706523,36.578844 C255.359219,35.9013737 251.858399,35.7645447 248.427663,35.7612074 C176.398886,35.7178226 104.370109,35.7283834 32.3413326,35.7411837 C29.7883041,35.7411837 27.2252637,35.8680008 24.6822471,36.0915993 C16.1054063,36.8491647 9.18719961,42.792882 7.5319027,51.1561362 C6.88113073,54.4533808 6.73762717,57.894129 6.73762717,61.2714687 C6.70091695,222.459343 6.70425424,383.650554 6.72094071,544.838428 C6.72094071,547.33806 6.85443239,549.841029 7.0646818,552.330649 C7.7888742,560.917502 13.6825322,567.849058 22.0557982,569.541065 C25.4031022,570.218535 28.9039217,570.355364 32.334658,570.358701 C104.363435,570.402086 176.392211,570.391525 248.420988,570.378725 C250.974017,570.378725 253.537057,570.251908 256.080074,570.02831 C264.653577,569.274082 271.585133,563.327027 273.223744,554.960435 C273.891202,551.55306 274.021356,547.998844 274.021356,544.511374 C274.064741,464.08597 274.055728,383.660566 274.055728,303.231825 Z"></path></g></svg>