<svg width="29" height="57" viewBox="0 0 29 57" fill="none" xmlns="http://www.w3.org/2000/svg">
<path d="M26.376 51.2569C24.4906 50.2527 20.7137 48.2826 15.0451 45.3464C9.37645 42.3975 6.08338 40.6815 5.16585 40.1985C4.41171 39.8045 4.03464 39.6075 4.03464 39.6075C4.03464 39.6075 3.60729 39.6075 2.7526 39.6075C1.47057 39.6075 0.829552 39.6075 0.829552 39.6075C0.829552 39.6075 0.829552 40.2748 0.829552 41.6094L0.829552 54.9939C0.829552 56.2141 0.829552 56.8242 0.829552 56.8242C0.829552 56.8242 1.43286 56.8242 2.63948 56.8242C3.89638 56.8242 4.52483 56.8242 4.52483 56.8242C4.52483 56.8242 4.52483 56.2141 4.52483 54.9939L4.52483 44.0118H4.54368C7.5351 45.5625 11.1927 47.4945 15.5164 49.8079C19.8275 52.1212 22.8692 53.7546 24.6415 54.7079C26.376 55.6231 27.2432 56.0806 27.2432 56.0806C27.2432 56.0806 27.4003 55.4451 27.7146 54.174C28.0414 52.8775 28.2048 52.2293 28.2048 52.2293C28.2048 52.2293 27.5952 51.9052 26.376 51.2569Z" fill="#FFEFD3"/>
<path d="M19.3248 33.6025H19.3059C17.7474 33.6025 16.4591 33.056 15.441 31.9628C14.4229 30.857 13.9138 29.5224 13.9138 27.959V27.9018C13.9138 26.3129 14.4166 24.9973 15.4221 23.9551C16.4276 22.9128 17.716 22.3916 19.2871 22.3916H19.3059C20.9022 22.3916 22.2156 22.9191 23.2463 23.9741C24.2644 25.0164 24.7734 26.3383 24.7734 27.9399V27.9971C24.7734 29.6241 24.2581 30.9651 23.2274 32.02C22.1842 33.075 20.8833 33.6025 19.3248 33.6025ZM28.4121 27.9399V27.8827C28.4121 25.2643 27.526 23.0526 25.7538 21.2477C23.969 19.43 21.8009 18.5212 19.2494 18.5212C16.7356 18.5212 14.6554 19.3792 13.0089 21.0951C11.3498 22.7984 10.5202 24.8194 10.5202 27.1582V27.2535C10.5202 27.9272 10.5894 28.5436 10.7276 29.1029C10.8659 29.6622 11.0481 30.1579 11.2744 30.5901L11.84 30.1897L11.4252 29.8846C10.8093 29.427 10.118 28.9186 9.35131 28.3593C8.57203 27.8001 7.83047 27.2662 7.1266 26.7578C6.24678 26.1222 5.48635 25.5757 4.84534 25.1181C4.20432 24.6605 3.78326 24.3491 3.58216 24.1839C2.62691 23.5102 2.14929 23.1733 2.14929 23.1733C2.14929 23.1733 1.76594 23.7199 0.999232 24.813C0.333077 25.7918 0 26.2811 0 26.2811C0 26.2811 0.496474 26.6561 1.48942 27.406C2.49494 28.1687 3.73298 29.0966 5.20355 30.1897C6.66155 31.2828 8.35836 32.5094 10.294 33.8695C11.6891 34.8609 13.122 35.7125 14.5926 36.4243C16.0506 37.1361 17.5966 37.492 19.2305 37.492H19.3436C21.8826 37.492 24.0319 36.5832 25.7915 34.7656C27.5386 32.9352 28.4121 30.66 28.4121 27.9399Z" fill="#FFEFD3"/>
<path d="M17.5526 8.12211C17.5526 5.74519 16.7419 3.80044 15.1205 2.28786C13.4865 0.76257 11.4063 -7.53961e-05 8.87997 -7.53961e-05C6.35361 -7.53961e-05 4.27345 0.76257 2.63948 2.28786C0.992947 3.80044 0.16968 5.74519 0.16968 8.12211C0.16968 10.4863 0.992947 12.4311 2.63948 13.9564C4.27345 15.4689 6.35361 16.2252 8.87997 16.2252C11.4063 16.2252 13.4865 15.4689 15.1205 13.9564C16.7419 12.4311 17.5526 10.4863 17.5526 8.12211ZM14.5172 8.12211C14.5172 9.52029 13.9893 10.6643 12.9335 11.554C11.8777 12.4438 10.5265 12.8886 8.87997 12.8886C7.23344 12.8886 5.88228 12.4438 4.82648 11.554C3.75812 10.6643 3.22394 9.52029 3.22394 8.12211C3.22394 6.72392 3.75812 5.58631 4.82648 4.70926C5.88228 3.81951 7.23344 3.37463 8.87997 3.37463C10.5265 3.37463 11.8777 3.81951 12.9335 4.70926C13.9893 5.58631 14.5172 6.72392 14.5172 8.12211Z" fill="#FFEFD3"/>
</svg>
