<svg width="32" height="32" viewBox="0 0 32 32" fill="none" xmlns="http://www.w3.org/2000/svg">
<path fill-rule="evenodd" clip-rule="evenodd" d="M2.83494 11.2895C3.60508 10.4748 4.67139 10 6.04247 10C7.90102 10 9.07829 10.8103 9.53846 11.3118L8.58897 12.3465C8.37775 12.1163 7.54086 11.4633 6.04247 11.4633C4.97501 11.4633 4.25886 11.8226 3.77022 12.3395C3.4402 12.6886 3.18854 13.137 3.01092 13.6582H6.71386V15.1215H2.71677C2.69571 15.3618 2.68555 15.6066 2.68555 15.8531C2.68555 16.0997 2.69571 16.3445 2.71677 16.5848H6.71386V18.0481H3.01092C3.18854 18.5693 3.4402 19.0177 3.77022 19.3668C4.25886 19.8837 4.97501 20.243 6.04247 20.243C7.54086 20.243 8.37775 19.59 8.58897 19.3598L9.53846 20.3945C9.07829 20.896 7.90102 21.7063 6.04247 21.7063C4.67139 21.7063 3.60508 21.2314 2.83494 20.4167C2.21603 19.7621 1.82605 18.928 1.60101 18.0481H0V16.5848H1.36892C1.35117 16.3409 1.34277 16.0964 1.34277 15.8531C1.34277 15.6099 1.35117 15.3654 1.36892 15.1215H0V13.6582H1.60101C1.82605 12.7783 2.21603 11.9443 2.83494 11.2895Z" fill="#073042"/>
<path fill-rule="evenodd" clip-rule="evenodd" d="M13.5654 11.2895C14.3355 10.4748 15.4019 10 16.773 10C18.6315 10 19.8088 10.8103 20.2689 11.3118L19.3195 12.3465C19.1083 12.1163 18.2714 11.4633 16.773 11.4633C15.7054 11.4633 14.9893 11.8226 14.5007 12.3395C14.1707 12.6886 13.919 13.137 13.7414 13.6582H17.4443V15.1215H13.4472C13.4261 15.3618 13.416 15.6066 13.416 15.8531C13.416 16.0997 13.4261 16.3445 13.4472 16.5848H17.4443V18.0481H13.7414C13.919 18.5693 14.1707 19.0177 14.5007 19.3668C14.9893 19.8837 15.7054 20.243 16.773 20.243C18.2714 20.243 19.1083 19.59 19.3195 19.3598L20.2689 20.3945C19.8088 20.896 18.6315 21.7063 16.773 21.7063C15.4019 21.7063 14.3355 21.2314 13.5654 20.4167C12.9465 19.7621 12.5566 18.928 12.3315 18.0481H10.7305V16.5848H12.0994C12.0817 16.3409 12.0733 16.0964 12.0733 15.8531C12.0733 15.6099 12.0817 15.3654 12.0994 15.1215H10.7305V13.6582H12.3315C12.5566 12.7783 12.9465 11.9443 13.5654 11.2895Z" fill="#073042"/>
<path fill-rule="evenodd" clip-rule="evenodd" d="M24.2959 11.2895C25.066 10.4748 26.1323 10 27.5034 10C29.362 10 30.5393 10.8103 30.9994 11.3118L30.0499 12.3465C29.8387 12.1163 29.0018 11.4633 27.5034 11.4633C26.4359 11.4633 25.7198 11.8226 25.2311 12.3395C24.9011 12.6886 24.6494 13.137 24.4719 13.6582H28.1748V15.1215H24.1777C24.1566 15.3618 24.1465 15.6066 24.1465 15.8531C24.1465 16.0997 24.1566 16.3445 24.1777 16.5848H28.1748V18.0481H24.4719C24.6494 18.5693 24.9011 19.0177 25.2311 19.3668C25.7198 19.8837 26.4359 20.243 27.5034 20.243C29.0018 20.243 29.8387 19.59 30.0499 19.3598L30.9994 20.3945C30.5393 20.896 29.362 21.7063 27.5034 21.7063C26.1323 21.7063 25.066 21.2314 24.2959 20.4167C23.6769 19.7621 23.287 18.928 23.062 18.0481H21.4609V16.5848H22.8299C22.8121 16.3409 22.8037 16.0964 22.8037 15.8531C22.8037 15.6099 22.8121 15.3654 22.8299 15.1215H21.4609V13.6582H23.062C23.287 12.7783 23.6769 11.9443 24.2959 11.2895Z" fill="#073042"/>
</svg>
