<svg width="24" height="24" viewBox="0 0 24 24" fill="none" xmlns="http://www.w3.org/2000/svg">
<g clip-path="url(#clip0_1938_5923)">
<path d="M7.9 2.4V2.9H8.4H10.404C11.0039 2.9 11.5 3.39614 11.5 3.996V22.404C11.5 23.0014 11.0063 23.5 10.392 23.5H1.596C0.998575 23.5 0.5 23.0063 0.5 22.392V3.996C0.5 3.39614 0.996142 2.9 1.596 2.9H3.6H4.1V2.4V0.5H7.9V2.4ZM4.3 21.6L5.24118 21.8353L10.0412 12.8353L10.4333 12.1H9.6H7.7V6L6.75882 5.76471L1.95882 14.7647L1.56667 15.5H2.4H4.3V21.6Z" fill="#073042"/>
</g>
<defs>
<clipPath id="clip0_1938_5923">
<rect width="24" height="24" fill="white"/>
</clipPath>
</defs>
</svg>
