<?xml version="1.0" encoding="utf-8"?>
<!-- Generator: Adobe Illustrator 26.4.0, SVG Export Plug-In . SVG Version: 6.00 Build 0)  -->
<svg version="1.1" id="Layer_1" xmlns="http://www.w3.org/2000/svg" xmlns:xlink="http://www.w3.org/1999/xlink" x="0px" y="0px"
	 viewBox="0 0 32 32" style="enable-background:new 0 0 32 32;" xml:space="preserve">
<style type="text/css">
	.st0{fill:#073042;}
</style>
<path class="st0" d="M2.9,29.9c-0.7,0-1.2-0.2-1.7-0.7c-0.5-0.5-0.7-1-0.7-1.7V8c0-0.7,0.2-1.2,0.7-1.7c0.5-0.5,1-0.7,1.7-0.7h5.6
	l2.7-3.1c0.1-0.1,0.2-0.2,0.4-0.3c0.1-0.1,0.3-0.1,0.5-0.1h8c0.2,0,0.4,0,0.5,0.1c0.1,0.1,0.3,0.2,0.4,0.3l2.7,3.1h5.6
	c0.7,0,1.2,0.2,1.7,0.7c0.5,0.5,0.7,1,0.7,1.7v19.5c0,0.7-0.2,1.2-0.7,1.7c-0.5,0.5-1,0.7-1.7,0.7H2.9z M2.9,28h26.3
	c0.1,0,0.3-0.1,0.4-0.2c0.1-0.1,0.2-0.2,0.2-0.4V8c0-0.1-0.1-0.3-0.2-0.4c-0.1-0.1-0.2-0.2-0.4-0.2h-6.4l-3-3.5h-7.3l-3,3.5H2.9
	c-0.1,0-0.3,0.1-0.4,0.2C2.4,7.7,2.3,7.8,2.3,8v19.5c0,0.1,0.1,0.3,0.2,0.4C2.6,28,2.7,28,2.9,28z M16,24.9c2,0,3.8-0.7,5.2-2.1
	c1.4-1.4,2.1-3.1,2.1-5.2s-0.7-3.8-2.1-5.2C19.8,11,18,10.3,16,10.3s-3.8,0.7-5.2,2.1c-1.4,1.4-2.1,3.1-2.1,5.2s0.7,3.8,2.1,5.2
	C12.2,24.2,14,24.9,16,24.9z M16,23.1c-1.5,0-2.8-0.5-3.9-1.6c-1-1-1.6-2.3-1.6-3.9c0-1.5,0.5-2.8,1.6-3.9s2.3-1.6,3.9-1.6
	s2.8,0.5,3.9,1.6c1,1,1.6,2.3,1.6,3.9c0,1.5-0.5,2.8-1.6,3.9C18.8,22.5,17.5,23.1,16,23.1z M25.8,12.2c0.3,0,0.6-0.1,0.8-0.3
	c0.2-0.2,0.3-0.5,0.3-0.8c0-0.3-0.1-0.6-0.3-0.8c-0.2-0.2-0.5-0.3-0.8-0.3c-0.3,0-0.6,0.1-0.8,0.3c-0.2,0.2-0.3,0.5-0.3,0.8
	c0,0.3,0.1,0.6,0.3,0.8C25.2,12.1,25.5,12.2,25.8,12.2z"/>
</svg>
