<svg width="32" height="32" viewBox="0 0 32 32" fill="none" xmlns="http://www.w3.org/2000/svg">
<path d="M17.0287 11.5522C17.0287 12.5452 17.0287 13.517 17.0287 14.5099C16.0358 14.5099 15.0639 14.5099 14.064 14.5099C14.064 13.5311 14.064 12.5522 14.064 11.5522C15.0428 11.5522 16.0217 11.5522 17.0287 11.5522Z" fill="white"/>
<path d="M17.0287 17.49C17.0287 18.49 17.0287 19.4547 17.0287 20.4477C16.0428 20.4477 15.0639 20.4477 14.064 20.4477C14.064 19.4618 14.064 18.4829 14.064 17.49C15.0428 17.49 16.0217 17.49 17.0287 17.49Z" fill="white"/>
<path d="M8.04545 31C7.5 31 7.02273 30.7955 6.61364 30.3864C6.20455 29.9773 6 29.5 6 28.9545V3.04545C6 2.5 6.20455 2.02273 6.61364 1.61364C7.02273 1.20455 7.5 1 8.04545 1H23.0455C23.5909 1 24.0682 1.20455 24.4773 1.61364C24.8864 2.02273 25.0909 2.5 25.0909 3.04545V28.9545C25.0909 29.5 24.8864 29.9773 24.4773 30.3864C24.0682 30.7955 23.5909 31 23.0455 31H8.04545ZM8.04545 28.9545H23.0455V3.04545H8.04545V28.9545Z" fill="white"/>
</svg>
