<svg width="32" height="32" viewBox="0 0 32 32" fill="none" xmlns="http://www.w3.org/2000/svg">
<path d="M2.79651 26.7692C1.86811 26.7692 1.14128 26.454 0.616005 25.8235C0.0907296 25.193 -0.0986141 24.3215 0.0479744 23.2087L1.80704 10.7843C2.00249 9.4739 2.60716 8.3489 3.62108 7.40934C4.63498 6.46977 5.78936 6 7.08423 6H22.9524C24.2473 6 25.4016 6.46977 26.4156 7.40934C27.4295 8.3489 28.0341 9.4739 28.2296 10.7843L29.952 23.2087C30.0986 24.3215 29.9093 25.193 29.384 25.8235C28.8588 26.454 28.1319 26.7692 27.2035 26.7692C26.6416 26.7692 26.1651 26.6765 25.7743 26.4911C25.3834 26.3056 25.0535 26.0769 24.7848 25.805L20.9735 21.9477H9.02653L5.21521 25.805C4.94648 26.0769 4.61665 26.3056 4.22575 26.4911C3.83484 26.6765 3.35843 26.7692 2.79651 26.7692ZM3.45616 24.3956L8.0737 19.7225H21.9263L26.5439 24.3956C26.666 24.5192 26.8859 24.6305 27.2035 24.7294C27.4234 24.7294 27.5883 24.6181 27.6983 24.3956C27.8081 24.1731 27.8388 23.9505 27.7899 23.728L26.0308 11.1552C25.9086 10.2898 25.5483 9.58516 24.9498 9.0412C24.3511 8.49725 23.6854 8.22528 22.9524 8.22528H7.04758C6.31464 8.22528 5.64888 8.49725 5.05031 9.0412C4.45174 9.58516 4.09138 10.2898 3.96921 11.1552L2.21015 23.728C2.16129 23.9505 2.19183 24.1731 2.30178 24.3956C2.41171 24.6181 2.57663 24.7294 2.79651 24.7294C2.96753 24.7294 3.18741 24.6181 3.45616 24.3956ZM23.0624 17.8681C23.4533 17.8681 23.7953 17.7197 24.0885 17.4231C24.3816 17.1264 24.5283 16.7802 24.5283 16.3846C24.5283 15.989 24.3816 15.6429 24.0885 15.3461C23.7953 15.0495 23.4533 14.9011 23.0624 14.9011C22.6715 14.9011 22.3294 15.0495 22.0363 15.3461C21.7431 15.6429 21.5965 15.989 21.5965 16.3846C21.5965 16.7802 21.7431 17.1264 22.0363 17.4231C22.3294 17.7197 22.6715 17.8681 23.0624 17.8681ZM19.9474 13.0467C20.3383 13.0467 20.6803 12.8984 20.9735 12.6017C21.2666 12.3049 21.4133 11.9588 21.4133 11.5632C21.4133 11.1676 21.2666 10.8214 20.9735 10.5247C20.6803 10.228 20.3383 10.0797 19.9474 10.0797C19.5565 10.0797 19.2144 10.228 18.9213 10.5247C18.6281 10.8214 18.4815 11.1676 18.4815 11.5632C18.4815 11.9588 18.6281 12.3049 18.9213 12.6017C19.2144 12.8984 19.5565 13.0467 19.9474 13.0467ZM8.40352 17.6827H10.2359V14.9011H12.9844V13.0467H10.2359V10.2651H8.40352V13.0467H5.65499V14.9011H8.40352V17.6827Z" fill="white"/>
</svg>
