<svg width="32" height="32" viewBox="0 0 32 32" fill="none" xmlns="http://www.w3.org/2000/svg">
<path fill-rule="evenodd" clip-rule="evenodd" d="M2.83494 11.2895C3.60508 10.4748 4.67139 10 6.04247 10C7.90102 10 9.07829 10.8103 9.53846 11.3118L8.58897 12.3465C8.37775 12.1163 7.54086 11.4633 6.04247 11.4633C4.97501 11.4633 4.25886 11.8226 3.77022 12.3395C3.4402 12.6886 3.18854 13.137 3.01092 13.6582H6.71386V15.1215H2.71677C2.69571 15.3618 2.68555 15.6066 2.68555 15.8531C2.68555 16.0997 2.69571 16.3445 2.71677 16.5848H6.71386V18.0481H3.01092C3.18854 18.5693 3.4402 19.0177 3.77022 19.3668C4.25886 19.8837 4.97501 20.243 6.04247 20.243C7.54086 20.243 8.37775 19.59 8.58897 19.3598L9.53846 20.3945C9.07829 20.896 7.90102 21.7063 6.04247 21.7063C4.67139 21.7063 3.60508 21.2314 2.83494 20.4167C2.21603 19.7621 1.82605 18.928 1.60101 18.0481H0V16.5848H1.36892C1.35117 16.3409 1.34277 16.0964 1.34277 15.8531C1.34277 15.6099 1.35117 15.3654 1.36892 15.1215H0V13.6582H1.60101C1.82605 12.7783 2.21603 11.9443 2.83494 11.2895Z" fill="#073042"/>
</svg>
