<svg width="32" height="32" viewBox="0 0 32 32" fill="none" xmlns="http://www.w3.org/2000/svg">
<path d="M12.1088 19.8912V12.1511H19.8489V19.8912H12.1088ZM14.2659 17.7341H17.7341V14.2659H14.2659V17.7341ZM11.3474 30V26.997H7.66767C6.93454 26.997 6.3001 26.7432 5.76435 26.2356C5.2568 25.6999 5.00302 25.0655 5.00302 24.3323V20.6526H2V18.5378H5.00302V13.3776H2V11.2628H5.00302V7.58308C5.00302 6.84995 5.2568 6.22961 5.76435 5.72206C6.3001 5.1863 6.93454 4.91843 7.66767 4.91843H11.3474V2H13.4622V4.91843H18.6224V2H20.7372V4.91843H24.4169C25.1501 4.91843 25.7704 5.1863 26.2779 5.72206C26.8137 6.22961 27.0816 6.84995 27.0816 7.58308V11.2628H30V13.3776H27.0816V18.5378H30V20.6526H27.0816V24.3323C27.0816 25.0655 26.8137 25.6999 26.2779 26.2356C25.7704 26.7432 25.1501 26.997 24.4169 26.997H20.7372V30H18.6224V26.997H13.4622V30H11.3474ZM24.4169 24.8822C24.5579 24.8822 24.6848 24.8258 24.7976 24.713C24.9104 24.6002 24.9668 24.4733 24.9668 24.3323V7.58308C24.9668 7.44209 24.9104 7.31521 24.7976 7.20242C24.6848 7.08963 24.5579 7.03323 24.4169 7.03323H7.66767C7.52669 7.03323 7.3998 7.08963 7.28701 7.20242C7.17422 7.31521 7.11782 7.44209 7.11782 7.58308V24.3323C7.11782 24.4733 7.17422 24.6002 7.28701 24.713C7.3998 24.8258 7.52669 24.8822 7.66767 24.8822H24.4169Z" fill="white"/>
</svg>
