<?xml version="1.0" encoding="utf-8"?>
<!-- Generator: Adobe Illustrator 26.4.0, SVG Export Plug-In . SVG Version: 6.00 Build 0)  -->
<svg version="1.1" id="Layer_1" xmlns="http://www.w3.org/2000/svg" xmlns:xlink="http://www.w3.org/1999/xlink" x="0px" y="0px"
	 viewBox="0 0 32 32" style="enable-background:new 0 0 32 32;" xml:space="preserve">
<style type="text/css">
	.st0{fill:#073042;}
</style>
<g>
	<path class="st0" d="M8.1,31.8c-0.6,0-1.1-0.2-1.5-0.6c-0.4-0.4-0.6-0.9-0.6-1.5V2.3c0-0.6,0.2-1.1,0.6-1.5C7,0.4,7.5,0.2,8.1,0.2
		h15.8c0.6,0,1.1,0.2,1.5,0.6c0.4,0.4,0.6,0.9,0.6,1.5v27.4c0,0.6-0.2,1.1-0.6,1.5c-0.4,0.4-0.9,0.6-1.5,0.6H8.1z M8.1,28.6v1.1
		h15.8v-1.1H8.1z M8.1,26.4h15.8V5.6H8.1V26.4z M8.1,3.4h15.8V2.3H8.1V3.4z"/>
	<path class="st0" d="M15,9.6h5.3v5.3l-2.4-2.4L15,9.6z"/>
	<path class="st0" d="M17.2,22.1h-5.3v-5.3l2.4,2.4L17.2,22.1z"/>
</g>
</svg>
