<?xml version="1.0" encoding="utf-8"?>
<!-- Generator: Adobe Illustrator 26.4.0, SVG Export Plug-In . SVG Version: 6.00 Build 0)  -->
<svg version="1.1" id="Layer_1" xmlns="http://www.w3.org/2000/svg" xmlns:xlink="http://www.w3.org/1999/xlink" x="0px" y="0px"
	 viewBox="0 0 32 32" style="enable-background:new 0 0 32 32;" xml:space="preserve">
<style type="text/css">
	.st0{fill:#FFFFFF;filter:url(#Adobe_OpacityMaskFilter);}
	.st1{mask:url(#mask0_3324_4889_00000036242634811651257960000010116161122500230847_);}
	.st2{fill:#073042;}
</style>
<defs>
	<filter id="Adobe_OpacityMaskFilter" filterUnits="userSpaceOnUse" x="3.4" y="0.2" width="25.2" height="31.5">
		<feColorMatrix  type="matrix" values="1 0 0 0 0  0 1 0 0 0  0 0 1 0 0  0 0 0 1 0"/>
	</filter>
</defs>
<mask maskUnits="userSpaceOnUse" x="3.4" y="0.2" width="25.2" height="31.5" id="mask0_3324_4889_00000036242634811651257960000010116161122500230847_">
	<path class="st0" d="M37.6-2.4H3.4v34.2h34.2V-2.4z"/>
</mask>
<g class="st1">
	<path class="st2" d="M16,0.2C7.6,7.4,3.4,13.6,3.4,18.8c0,7.9,6,12.9,12.6,12.9c6.6,0,12.6-5.1,12.6-12.9
		C28.6,13.6,24.4,7.4,16,0.2z M16,28.6c-5.3,0-9.5-4.1-9.5-9.8c0-3.7,3.1-8.6,9.5-14.4c6.4,5.8,9.5,10.7,9.5,14.4
		C25.5,24.6,21.3,28.6,16,28.6z M9.4,19.2c0.6,0,1.1,0.4,1.2,1c0.6,3.5,3.6,4.7,5.7,4.5c0.7,0,1.2,0.5,1.2,1.2
		c0,0.6-0.5,1.2-1.1,1.2c-3.4,0.2-7.3-1.7-8.2-6.5C8.1,19.8,8.7,19.2,9.4,19.2z"/>
</g>
</svg>
