<svg width="24" height="24" viewBox="0 0 24 24" fill="none" xmlns="http://www.w3.org/2000/svg">
<g clip-path="url(#clip0_1938_5784)">
<path d="M10.4999 8.52258C9.26238 8.52258 8.24988 9.53508 8.24988 10.7726C8.24988 12.0101 9.26238 13.0226 10.4999 13.0226C11.7374 13.0226 12.7499 12.0101 12.7499 10.7726C12.7499 9.53508 11.7374 8.52258 10.4999 8.52258Z" fill="#073042"/>
<path d="M10.4999 14.5227C9.26238 14.5227 8.24988 15.5352 8.24988 16.7727C8.24988 18.0102 9.26238 19.0227 10.4999 19.0227C11.7374 19.0227 12.7499 18.0102 12.7499 16.7727C12.7499 15.5352 11.7374 14.5227 10.4999 14.5227Z" fill="#073042"/>
<path d="M20.9891 2.1427H9.00964C5.69593 2.1427 3.00964 4.82899 3.00964 8.1427V23.9997" stroke="#073042" stroke-width="2"/>
</g>
<defs>
<clipPath id="clip0_1938_5784">
<rect width="24" height="24" fill="white"/>
</clipPath>
</defs>
</svg>
