<svg width="32" height="32" viewBox="0 0 32 32" fill="none" xmlns="http://www.w3.org/2000/svg">
<path d="M12.1355 10.9324C10.5968 10.9324 9.33789 12.1913 9.33789 13.7299C9.33789 15.2686 10.5968 16.5275 12.1355 16.5275C13.6741 16.5275 14.933 15.2686 14.933 13.7299C14.933 12.1913 13.6741 10.9324 12.1355 10.9324Z" fill="white"/>
<path d="M12.1355 18.3928C10.5968 18.3928 9.33789 19.6517 9.33789 21.1904C9.33789 22.729 10.5968 23.9879 12.1355 23.9879C13.6741 23.9879 14.933 22.729 14.933 21.1904C14.933 19.6517 13.6741 18.3928 12.1355 18.3928Z" fill="white"/>
<path d="M25.1771 3H10.2824C6.16227 3 2.82227 6.34001 2.82227 10.4601V30.176" stroke="white" stroke-width="2"/>
</svg>
