<svg width="24" height="24" viewBox="0 0 24 24" fill="none" xmlns="http://www.w3.org/2000/svg">
<g clip-path="url(#clip0_1938_5802)">
<path d="M10.5 6.75098C9.2625 6.75098 8.25 7.76348 8.25 9.00098C8.25 10.2385 9.2625 11.251 10.5 11.251C11.7375 11.251 12.75 10.2385 12.75 9.00098C12.75 7.76348 11.7375 6.75098 10.5 6.75098Z" fill="#073042"/>
<path d="M10.5 12.7511C9.2625 12.7511 8.25 13.7636 8.25 15.0011C8.25 16.2386 9.2625 17.2511 10.5 17.2511C11.7375 17.2511 12.75 16.2386 12.75 15.0011C12.75 13.7636 11.7375 12.7511 10.5 12.7511Z" fill="#073042"/>
<path d="M10.5 18.7511C9.2625 18.7511 8.25 19.7636 8.25 21.0011C8.25 22.2386 9.2625 23.2511 10.5 23.2511C11.7375 23.2511 12.75 22.2386 12.75 21.0011C12.75 19.7636 11.7375 18.7511 10.5 18.7511Z" fill="#073042"/>
<path d="M20.9897 2.14297H9.01025C5.69655 2.14297 3.01025 4.82927 3.01025 8.14298V24" stroke="#073042" stroke-width="2"/>
</g>
<defs>
<clipPath id="clip0_1938_5802">
<rect width="24" height="24" fill="white"/>
</clipPath>
</defs>
</svg>
