<svg width="32" height="32" viewBox="0 0 32 32" fill="none" xmlns="http://www.w3.org/2000/svg">
<g clip-path="url(#clip0_3324_4949)">
<mask id="mask0_3324_4949" style="mask-type:luminance" maskUnits="userSpaceOnUse" x="0" y="0" width="32" height="32">
<path d="M32 0H0V32H32V0Z" fill="white"/>
</mask>
<g mask="url(#mask0_3324_4949)">
<path d="M14 9.00122C12.35 9.00122 11 10.3512 11 12.0012C11 13.6512 12.35 15.0012 14 15.0012C15.65 15.0012 17 13.6512 17 12.0012C17 10.3512 15.65 9.00122 14 9.00122Z" fill="white"/>
<path d="M14 17.0015C12.35 17.0015 11 18.3515 11 20.0015C11 21.6515 12.35 23.0015 14 23.0015C15.65 23.0015 17 21.6515 17 20.0015C17 18.3515 15.65 17.0015 14 17.0015Z" fill="white"/>
<path d="M14 25.0015C12.35 25.0015 11 26.3515 11 28.0015C11 29.6515 12.35 31.0015 14 31.0015C15.65 31.0015 17 29.6515 17 28.0015C17 26.3515 15.65 25.0015 14 25.0015Z" fill="white"/>
<path d="M27.9863 2.85718H12.0137C7.59541 2.85718 4.01367 6.43891 4.01367 10.8572V31.9999" stroke="white" stroke-width="2"/>
</g>
</g>
<defs>
<clipPath id="clip0_3324_4949">
<rect width="32" height="32" fill="white"/>
</clipPath>
</defs>
</svg>
