<svg width="24" height="24" viewBox="0 0 24 24" fill="none" xmlns="http://www.w3.org/2000/svg">
<path d="M2.23721 20.3077C1.49449 20.3077 0.913024 20.0555 0.492804 19.5511C0.0725836 19.0467 -0.0788913 18.3495 0.0383795 17.4593L1.44563 7.51978C1.60199 6.47143 2.08573 5.57143 2.89686 4.81978C3.70798 4.06813 4.63149 3.69231 5.66738 3.69231H18.3619C19.3978 3.69231 20.3213 4.06813 21.1325 4.81978C21.9436 5.57143 22.4273 6.47143 22.5837 7.51978L23.9616 17.4593C24.0789 18.3495 23.9274 19.0467 23.5072 19.5511C23.087 20.0555 22.5055 20.3077 21.7628 20.3077C21.3133 20.3077 20.9321 20.2335 20.6194 20.0852C20.3067 19.9368 20.0428 19.7538 19.8278 19.5363L16.7788 16.4505H7.22122L4.17217 19.5363C3.95718 19.7538 3.69332 19.9368 3.3806 20.0852C3.06787 20.2335 2.68674 20.3077 2.23721 20.3077ZM2.76493 18.4088L6.45896 14.6703H17.541L21.2351 18.4088C21.3328 18.5077 21.5087 18.5967 21.7628 18.6758C21.9387 18.6758 22.0706 18.5868 22.1586 18.4088C22.2465 18.2308 22.271 18.0527 22.2319 17.8747L20.8246 7.81648C20.7269 7.12418 20.4386 6.56044 19.9598 6.12527C19.4809 5.69011 18.9483 5.47253 18.3619 5.47253H5.63806C5.05171 5.47253 4.5191 5.69011 4.04025 6.12527C3.56139 6.56044 3.2731 7.12418 3.17537 7.81648L1.76812 17.8747C1.72903 18.0527 1.75346 18.2308 1.84142 18.4088C1.92937 18.5868 2.0613 18.6758 2.23721 18.6758C2.37402 18.6758 2.54993 18.5868 2.76493 18.4088ZM18.4499 13.1868C18.7626 13.1868 19.0362 13.0681 19.2708 12.8308C19.5053 12.5934 19.6226 12.3165 19.6226 12C19.6226 11.6835 19.5053 11.4066 19.2708 11.1692C19.0362 10.9319 18.7626 10.8132 18.4499 10.8132C18.1372 10.8132 17.8635 10.9319 17.629 11.1692C17.3945 11.4066 17.2772 11.6835 17.2772 12C17.2772 12.3165 17.3945 12.5934 17.629 12.8308C17.8635 13.0681 18.1372 13.1868 18.4499 13.1868ZM15.9579 9.32967C16.2706 9.32967 16.5442 9.21099 16.7788 8.97363C17.0133 8.73626 17.1306 8.45934 17.1306 8.14286C17.1306 7.82637 17.0133 7.54945 16.7788 7.31209C16.5442 7.07472 16.2706 6.95604 15.9579 6.95604C15.6452 6.95604 15.3715 7.07472 15.137 7.31209C14.9025 7.54945 14.7852 7.82637 14.7852 8.14286C14.7852 8.45934 14.9025 8.73626 15.137 8.97363C15.3715 9.21099 15.6452 9.32967 15.9579 9.32967ZM6.72281 13.0385H8.1887V10.8132H10.3875V9.32967H8.1887V7.10439H6.72281V9.32967H4.52399V10.8132H6.72281V13.0385Z" fill="#073042"/>
</svg>
