<?xml version="1.0" encoding="utf-8"?>
<!-- Generator: Adobe Illustrator 26.4.0, SVG Export Plug-In . SVG Version: 6.00 Build 0)  -->
<svg version="1.1" id="Layer_1" xmlns="http://www.w3.org/2000/svg" xmlns:xlink="http://www.w3.org/1999/xlink" x="0px" y="0px"
	 viewBox="0 0 32 32" style="enable-background:new 0 0 32 32;" xml:space="preserve">
<style type="text/css">
	.st0{fill:#FFFFFF;}
</style>
<g>
	<path class="st0" d="M8.1,31.8c-0.6,0-1.1-0.2-1.5-0.6c-0.4-0.4-0.6-0.9-0.6-1.5V2.4c0-0.6,0.2-1.1,0.6-1.5C7,0.4,7.5,0.2,8.1,0.2
		h15.8c0.6,0,1.1,0.2,1.5,0.6c0.4,0.4,0.6,0.9,0.6,1.5v27.3c0,0.6-0.2,1.1-0.6,1.5c-0.4,0.4-0.9,0.6-1.5,0.6H8.1z M8.1,29.6h15.8
		V2.4H8.1V29.6z"/>
	<path class="st0" d="M14.4,9.2c0,1,0,2.1,0,3.1c-1,0-2.1,0-3.1,0c0-1,0-2.1,0-3.1C12.3,9.2,13.4,9.2,14.4,9.2z"/>
	<path class="st0" d="M20.7,9.1c0,1.1,0,2.1,0,3.1c-1,0-2.1,0-3.1,0c0-1,0-2.1,0-3.1C18.6,9.1,19.6,9.1,20.7,9.1z"/>
	<path class="st0" d="M11.3,17.5c0-1,0-2,0-3.1c1,0,2.1,0,3.1,0c0,1,0,2,0,3.1C13.4,17.5,12.4,17.5,11.3,17.5z"/>
	<path class="st0" d="M20.7,17.5c-1.1,0-2.1,0-3.1,0c0-1,0-2.1,0-3.1c1,0,2.1,0,3.1,0C20.7,15.4,20.7,16.5,20.7,17.5z"/>
	<path class="st0" d="M11.3,19.7c1.1,0,2.1,0,3.1,0c0,1,0,2.1,0,3.1c-1,0-2.1,0-3.1,0C11.3,21.8,11.3,20.8,11.3,19.7z"/>
	<path class="st0" d="M20.7,22.9c-1,0-2.1,0-3.1,0c0-1,0-2.1,0-3.1c1,0,2.1,0,3.1,0C20.7,20.8,20.7,21.8,20.7,22.9z"/>
</g>
</svg>
