<?xml version="1.0" encoding="utf-8"?>
<!-- Generator: Adobe Illustrator 26.4.0, SVG Export Plug-In . SVG Version: 6.00 Build 0)  -->
<svg version="1.1" id="Layer_1" xmlns="http://www.w3.org/2000/svg" xmlns:xlink="http://www.w3.org/1999/xlink" x="0px" y="0px"
	 viewBox="0 0 32 32" style="enable-background:new 0 0 32 32;" xml:space="preserve">
<style type="text/css">
	.st0{fill:#073042;}
</style>
<g>
	<path class="st0" d="M5.7,12.4h20.6V2.5H5.7V12.4z M5.7,14.8c-0.6,0-1.2-0.2-1.7-0.7c-0.5-0.5-0.7-1-0.7-1.7V2.5
		c0-0.6,0.2-1.2,0.7-1.7c0.5-0.5,1-0.7,1.7-0.7h20.6c0.6,0,1.2,0.2,1.7,0.7c0.5,0.5,0.7,1,0.7,1.7v9.9c0,0.6-0.2,1.2-0.7,1.7
		c-0.5,0.5-1,0.7-1.7,0.7H5.7z M5.7,29.5h20.6v-9.9H5.7V29.5z M5.7,31.9c-0.6,0-1.2-0.2-1.7-0.7c-0.5-0.5-0.7-1-0.7-1.7v-9.9
		c0-0.6,0.2-1.2,0.7-1.7c0.5-0.5,1-0.7,1.7-0.7h20.6c0.6,0,1.2,0.2,1.7,0.7c0.5,0.5,0.7,1,0.7,1.7v9.9c0,0.6-0.2,1.2-0.7,1.7
		c-0.5,0.5-1,0.7-1.7,0.7H5.7z"/>
</g>
</svg>
