<?xml version="1.0" encoding="utf-8"?>
<!-- Generator: Adobe Illustrator 26.4.0, SVG Export Plug-In . SVG Version: 6.00 Build 0)  -->
<svg version="1.1" id="Layer_1" xmlns="http://www.w3.org/2000/svg" xmlns:xlink="http://www.w3.org/1999/xlink" x="0px" y="0px"
	 viewBox="0 0 32 32" style="enable-background:new 0 0 32 32;" xml:space="preserve">
<style type="text/css">
	.st0{fill:#FFFFFF;}
</style>
<g>
	<path class="st0" d="M8.1,31.8c-0.6,0-1.1-0.2-1.5-0.6C6.2,30.7,6,30.2,6,29.6V2.4c0-0.6,0.2-1.1,0.6-1.5C7,0.5,7.6,0.2,8.1,0.2
		h15.8c0.6,0,1.1,0.2,1.5,0.6C25.8,1.3,26,1.8,26,2.4v27.2c0,0.6-0.2,1.1-0.6,1.5c-0.4,0.4-0.9,0.6-1.5,0.6H8.1z M8.1,28.5v1.1h15.8
		v-1.1H8.1z M8.1,26.4h15.8V5.6H8.1V26.4z M8.1,3.5h15.8V2.4H8.1V3.5z"/>
	<path class="st0" d="M17.6,7h5.3v5.3l-2.4-2.4L17.6,7z"/>
	<path class="st0" d="M14.5,24.7H9.3v-5.3l2.4,2.4L14.5,24.7z"/>
</g>
</svg>
