<svg width="32" height="32" viewBox="0 0 32 32" fill="none" xmlns="http://www.w3.org/2000/svg">
<g clip-path="url(#clip0_3324_4958)">
<g clip-path="url(#clip1_3324_4958)">
<path d="M10.8667 3.53333V4.2H11.5333H14.2053C15.0052 4.2 15.6667 4.86152 15.6667 5.66133V30.2053C15.6667 31.0019 15.0084 31.6667 14.1893 31.6667H2.46133C1.66477 31.6667 1 31.0084 1 30.1893V5.66133C1 4.86152 1.66152 4.2 2.46133 4.2H5.13333H5.8V3.53333V1H10.8667V3.53333ZM6.06667 29.1333L7.32157 29.4471L13.7216 17.4471L14.2444 16.4667H13.1333H10.6V8.33333L9.34509 8.01961L2.94509 20.0196L2.42223 21H3.53333H6.06667V29.1333Z" fill="white"/>
</g>
</g>
<defs>
<clipPath id="clip0_3324_4958">
<rect width="32" height="32" fill="white"/>
</clipPath>
<clipPath id="clip1_3324_4958">
<rect width="32" height="32" fill="white"/>
</clipPath>
</defs>
</svg>
