<?xml version="1.0" encoding="utf-8"?>
<!-- Generator: Adobe Illustrator 26.4.0, SVG Export Plug-In . SVG Version: 6.00 Build 0)  -->
<svg version="1.1" id="Layer_1" xmlns="http://www.w3.org/2000/svg" xmlns:xlink="http://www.w3.org/1999/xlink" x="0px" y="0px"
	 viewBox="0 0 32 32" style="enable-background:new 0 0 32 32;" xml:space="preserve">
<style type="text/css">
	.st0{fill:#FFFFFF;}
</style>
<g>
	<path class="st0" d="M14.4,11c0,1,0,2.1,0,3.1c-1,0-2.1,0-3.1,0c0-1,0-2.1,0-3.1C12.3,11,13.3,11,14.4,11z"/>
	<path class="st0" d="M20.7,11c0,1.1,0,2.1,0,3.1c-1,0-2.1,0-3.1,0c0-1,0-2.1,0-3.1C18.6,11,19.7,11,20.7,11z"/>
	<path class="st0" d="M11.3,17.9c1.1,0,2.1,0,3.1,0c0,1,0,2.1,0,3.1c-1,0-2.1,0-3.1,0C11.3,19.9,11.3,18.9,11.3,17.9z"/>
	<path class="st0" d="M20.7,21c-1,0-2.1,0-3.1,0c0-1,0-2.1,0-3.1c1,0,2.1,0,3.1,0C20.7,18.9,20.7,19.9,20.7,21z"/>
	<path class="st0" d="M8.1,31.8c-0.6,0-1.1-0.2-1.5-0.6S6,30.3,6,29.7V2.3c0-0.6,0.2-1.1,0.6-1.5C7,0.4,7.5,0.2,8.1,0.2h15.8
		c0.6,0,1.1,0.2,1.5,0.6S26,1.7,26,2.3v27.4c0,0.6-0.2,1.1-0.6,1.5s-0.9,0.6-1.5,0.6H8.1z M8.1,29.7h15.8V2.3H8.1V29.7z"/>
</g>
</svg>
